<svg width="24" height="24" viewBox="0 0 24 24" fill="none" xmlns="http://www.w3.org/2000/svg">
<path d="M21.8798 17.8552C21.7845 17.3462 21.2946 17.011 20.7856 17.1064C20.2768 17.2018 19.9415 17.6916 20.0368 18.2005C20.1076 18.5781 19.9416 18.8471 19.8364 18.9739C19.7315 19.1003 19.4982 19.3125 19.1155 19.3125H4.88461C4.50188 19.3125 4.26863 19.1004 4.16368 18.9739C4.05849 18.8471 3.8925 18.5781 3.96328 18.2005C4.22921 16.7815 4.76278 15.8482 5.27878 14.9455C5.90546 13.8494 6.55346 12.7159 6.55346 10.9687V9.56245C6.55346 6.60619 8.95641 4.16845 11.9114 4.12556H12.0886C15.0336 4.16836 17.4285 6.60609 17.4285 9.5625V10.9688C17.4285 12.4558 17.9149 13.479 18.3709 14.3214C18.5406 14.6349 18.8631 14.8128 19.1962 14.8128C19.3469 14.8128 19.4998 14.7764 19.6416 14.6996C20.097 14.4532 20.2663 13.8842 20.0198 13.4289C19.5661 12.5907 19.3035 11.9194 19.3035 10.9688V9.5625C19.3035 7.63308 18.5562 5.81077 17.1991 4.43128C16.0361 3.24905 14.5428 2.51128 12.9285 2.30766V0.9375C12.9285 0.419719 12.5088 0 11.991 0C11.4732 0 11.0535 0.419719 11.0535 0.9375V2.31042C7.46953 2.77542 4.6785 5.86786 4.6785 9.5625V10.9688C4.6785 12.2178 4.22508 13.0109 3.65105 14.015C3.08555 15.0042 2.44453 16.1254 2.12035 17.8552C1.96561 18.6809 2.18452 19.5251 2.72096 20.1714C3.25688 20.8172 4.04555 21.1875 4.88461 21.1875H9.1966C9.1966 22.7383 10.4583 24 12.0091 24C13.5599 24 14.8216 22.7383 14.8216 21.1875H19.1155C19.9545 21.1875 20.7432 20.8172 21.2791 20.1714C21.8156 19.5252 22.0345 18.6809 21.8798 17.8552ZM12.0091 22.125C11.4922 22.125 11.0716 21.7044 11.0716 21.1875H12.9466C12.9466 21.7044 12.5261 22.125 12.0091 22.125Z" fill="black"/>
</svg>
