<svg width="12" height="7" viewBox="0 0 12 7" fill="none" xmlns="http://www.w3.org/2000/svg">
<path d="M4.87756 5.79155C5.49699 6.40269 6.50287 6.4028 7.12202 5.79199L4.87756 5.79155ZM4.87756 5.79155L4.87761 5.7916L5.05295 5.61349L4.87739 5.79138C4.87744 5.79144 4.8775 5.79149 4.87756 5.79155ZM6.14029 4.81225L6.14008 4.81246L10.8689 1.7525C10.9563 1.66642 11 1.55352 11 1.44057C11 1.328 10.9565 1.2154 10.8696 1.12942L11.0455 0.951696C11.0454 0.951693 11.0454 0.951689 11.0454 0.951685C10.7741 0.683242 10.3349 0.682695 10.0629 0.950498L6.14029 4.81225Z" fill="black" stroke="black" stroke-width="0.5"/>
</svg>
