<svg width="54" height="54" viewBox="0 0 54 54" fill="none" xmlns="http://www.w3.org/2000/svg">
<circle cx="27" cy="27" r="27" fill="#C4C4C4"/>
<path d="M31.5234 25.3125C31.5234 24.7947 31.1037 24.375 30.5859 24.375H20.9297C20.4119 24.375 19.9922 24.7947 19.9922 25.3125C19.9922 25.8303 20.4119 26.25 20.9297 26.25H30.5859C31.1037 26.25 31.5234 25.8303 31.5234 25.3125Z" fill="black"/>
<path d="M20.9297 28.125C20.4119 28.125 19.9922 28.5447 19.9922 29.0625C19.9922 29.5803 20.4119 30 20.9297 30H26.7943C27.312 30 27.7318 29.5803 27.7318 29.0625C27.7318 28.5447 27.312 28.125 26.7943 28.125H20.9297Z" fill="black"/>
<path d="M23.1315 37.125H19.9961C18.9622 37.125 18.1211 36.2839 18.1211 35.25V18.75C18.1211 17.7161 18.9622 16.875 19.9961 16.875H31.5221C32.556 16.875 33.3971 17.7161 33.3971 18.75V24.5156C33.3971 25.0334 33.8169 25.4531 34.3346 25.4531C34.8524 25.4531 35.2721 25.0334 35.2721 24.5156V18.75C35.2721 16.6823 33.5899 15 31.5221 15H19.9961C17.9283 15 16.2461 16.6823 16.2461 18.75V35.25C16.2461 37.3177 17.9283 39 19.9961 39H23.1315C23.6493 39 24.069 38.5803 24.069 38.0625C24.069 37.5447 23.6493 37.125 23.1315 37.125Z" fill="black"/>
<path d="M36.9321 28.5735C35.8355 27.4769 34.0513 27.4769 32.9554 28.5728L27.8084 33.7084C27.6991 33.8175 27.6184 33.9518 27.5735 34.0996L26.4526 37.7898C26.3532 38.117 26.4398 38.4723 26.6786 38.717C26.8575 38.9003 27.1005 38.9998 27.3497 38.9998C27.4331 38.9998 27.5173 38.9887 27.5999 38.9658L31.3839 37.9176C31.5396 37.8745 31.6816 37.7918 31.7959 37.6776L36.9322 32.5511C38.0288 31.4545 38.0288 29.6702 36.9321 28.5735ZM30.6458 36.1765L28.7421 36.7038L29.2992 34.8696L32.7722 31.4044L34.0983 32.7305L30.6458 36.1765ZM35.607 31.2247L35.4254 31.406L34.0995 30.0801L34.2805 29.8994C34.6461 29.5339 35.2408 29.5339 35.6064 29.8994C35.9719 30.265 35.9719 30.8597 35.607 31.2247Z" fill="black"/>
<path d="M30.5859 20.625H20.9297C20.4119 20.625 19.9922 21.0447 19.9922 21.5625C19.9922 22.0803 20.4119 22.5 20.9297 22.5H30.5859C31.1037 22.5 31.5234 22.0803 31.5234 21.5625C31.5234 21.0447 31.1037 20.625 30.5859 20.625Z" fill="black"/>
</svg>
