<svg width="32" height="28" viewBox="0 0 32 28" fill="none" xmlns="http://www.w3.org/2000/svg">
<path d="M30.75 21.5C30.0596 21.5 29.5 22.0596 29.5 22.75C29.5 24.1285 28.3785 25.25 27 25.25H17.4584L14.5844 21.5215L23.6561 9.98287L29.7852 17.2948C29.7974 17.3096 29.8099 17.3241 29.8227 17.3382C29.8231 17.3387 29.8236 17.3392 29.824 17.3397C29.8255 17.3414 29.8271 17.3431 29.8286 17.3447C29.9424 17.4691 30.0762 17.5654 30.2209 17.6328C30.3695 17.7023 30.5341 17.7434 30.7076 17.7492C30.7108 17.7493 30.714 17.7494 30.7172 17.7495C30.7178 17.7495 30.7183 17.7495 30.7188 17.7496C30.8081 17.7518 30.8978 17.7446 30.9861 17.7277L30.9894 17.7271C30.9932 17.7263 30.9971 17.7256 31.0011 17.7248C31.0026 17.7244 31.0042 17.7241 31.0059 17.7237C31.0092 17.7231 31.0126 17.7224 31.016 17.7216C31.0179 17.7212 31.0198 17.7208 31.0216 17.7204C31.0247 17.7197 31.0278 17.719 31.0308 17.7183C31.033 17.7178 31.0352 17.7173 31.0373 17.7167C31.0401 17.7161 31.0428 17.7154 31.0456 17.7148C31.0479 17.7143 31.0503 17.7136 31.0526 17.7131C31.0552 17.7124 31.0578 17.7118 31.0604 17.7111C31.0627 17.7105 31.0651 17.7099 31.0674 17.7092C31.0701 17.7086 31.0726 17.7079 31.0753 17.7072C31.0776 17.7066 31.08 17.7059 31.0824 17.7052L31.0897 17.7033C31.0922 17.7025 31.0948 17.7017 31.0974 17.7011C31.0999 17.7004 31.1023 17.6996 31.1047 17.6989C31.1068 17.6984 31.1088 17.6978 31.1108 17.6971C31.1139 17.6962 31.117 17.6953 31.12 17.6943C31.1217 17.6938 31.1234 17.6933 31.125 17.6928C31.1281 17.6918 31.1312 17.6908 31.1343 17.6898C31.1362 17.6892 31.1381 17.6886 31.1399 17.6879C31.143 17.6869 31.1461 17.6859 31.1492 17.6849C31.1506 17.6844 31.1521 17.6839 31.1535 17.6834C31.1569 17.6822 31.1604 17.6811 31.1639 17.6799C31.1652 17.6794 31.1665 17.6789 31.1678 17.6785C31.1714 17.6772 31.1749 17.676 31.1784 17.6747C31.1795 17.6743 31.1806 17.6739 31.1817 17.6734C31.1856 17.672 31.1894 17.6706 31.1933 17.6691L31.1952 17.6684C31.1994 17.6667 31.2037 17.6651 31.2079 17.6634C31.2082 17.6634 31.2084 17.6632 31.2087 17.6631C31.2132 17.6613 31.2178 17.6595 31.2224 17.6576C31.2779 17.6349 31.3323 17.608 31.3851 17.5768C31.3858 17.5764 31.3866 17.5759 31.3873 17.5755C31.3909 17.5734 31.3944 17.5712 31.398 17.5691C31.4654 17.5282 31.5286 17.4811 31.5868 17.4285C31.5879 17.4276 31.5889 17.4266 31.5899 17.4257C31.5909 17.4248 31.5918 17.4239 31.5928 17.4231C31.7181 17.3088 31.8151 17.1743 31.8829 17.0287C31.9526 16.8795 31.9937 16.7143 31.9993 16.5401C31.9993 16.5378 31.9994 16.5356 31.9994 16.5334C31.9994 16.5319 31.9995 16.5305 31.9995 16.5291C31.9996 16.5249 31.9997 16.5206 31.9998 16.5163C31.9998 16.5162 31.9998 16.5161 31.9998 16.516C31.9998 16.5094 31.9998 16.5028 31.9998 16.4962V5.25C31.9998 2.493 29.7568 0.25 26.9998 0.25H5C2.243 0.25 0 2.49294 0 5.25V22.75C0 25.507 2.243 27.75 5 27.75H16.8359C16.8388 27.75 16.8418 27.7501 16.8447 27.7501C16.8486 27.7501 16.8525 27.7501 16.8564 27.75H27C29.757 27.75 32 25.507 32 22.75C32 22.0596 31.4404 21.5 30.75 21.5ZM5 25.25C3.6215 25.25 2.5 24.1285 2.5 22.75V5.25C2.5 3.8715 3.6215 2.75 5 2.75H27C28.3785 2.75 29.5 3.8715 29.5 5.25V13.0629L24.5829 7.197C24.3411 6.90837 23.9827 6.74444 23.6054 6.75012C23.2289 6.756 22.8751 6.93138 22.6424 7.22738L13.01 19.479L9.74 15.2368C9.50338 14.9298 9.13762 14.7499 8.75 14.7499H8.74938C8.3615 14.7501 7.99569 14.9304 7.75919 15.2378L5.00825 18.814C4.58738 19.3612 4.68969 20.146 5.23688 20.5669C5.78419 20.9879 6.56894 20.8855 6.98981 20.3383L8.751 18.0487L14.302 25.25H5Z" fill="black"/>
</svg>
