<svg width="18" height="16" viewBox="0 0 18 16" fill="none" xmlns="http://www.w3.org/2000/svg">
<path d="M9.99393 7.001L17.7936 -0.798677C18.0682 -1.07328 18.0682 -1.5185 17.7936 -1.79307C17.519 -2.06764 17.0738 -2.06767 16.7992 -1.79307L8.9995 6.00661L1.19986 -1.79307C0.925253 -2.06767 0.480035 -2.06767 0.205465 -1.79307C-0.0691044 -1.51846 -0.0691395 -1.07325 0.205465 -0.798677L8.00511 7.00097L0.205465 14.8006C-0.0691395 15.0753 -0.0691395 15.5205 0.205465 15.795C0.34275 15.9323 0.522715 16.0009 0.702679 16.0009C0.882644 16.0009 1.06257 15.9323 1.19989 15.795L8.9995 7.99539L16.7991 15.795C16.9364 15.9323 17.1164 16.0009 17.2964 16.0009C17.4763 16.0009 17.6563 15.9323 17.7936 15.795C18.0682 15.5204 18.0682 15.0752 17.7936 14.8006L9.99393 7.001Z" fill="white"/>
</svg>
