<svg width="18" height="16" viewBox="0 0 18 16" fill="none" xmlns="http://www.w3.org/2000/svg">
<path d="M17.2969 12.2188C16.9085 12.2188 16.5938 12.5335 16.5938 12.9219C16.5938 13.6973 15.9629 14.3281 15.1875 14.3281H9.82037L8.20371 12.2308L13.3065 5.74037L16.7542 9.85333C16.761 9.86163 16.7681 9.86979 16.7753 9.87773C16.7755 9.87801 16.7758 9.87829 16.776 9.87858C16.7768 9.87952 16.7777 9.88047 16.7786 9.88142C16.8426 9.95135 16.9179 10.0055 16.9992 10.0435C17.0828 10.0826 17.1754 10.1057 17.273 10.1089C17.2748 10.109 17.2766 10.1091 17.2784 10.1091C17.2787 10.1091 17.2791 10.1091 17.2793 10.1091C17.3296 10.1104 17.38 10.1063 17.4297 10.0968L17.4315 10.0965C17.4337 10.0961 17.4359 10.0956 17.4381 10.0952C17.439 10.095 17.4399 10.0948 17.4408 10.0946C17.4427 10.0942 17.4446 10.0938 17.4465 10.0934C17.4476 10.0932 17.4486 10.093 17.4497 10.0927C17.4514 10.0923 17.4531 10.0919 17.4548 10.0916C17.4561 10.0913 17.4573 10.091 17.4585 10.0907C17.46 10.0903 17.4616 10.0899 17.4631 10.0896C17.4645 10.0893 17.4658 10.0889 17.4671 10.0886C17.4685 10.0882 17.47 10.0879 17.4715 10.0875C17.4728 10.0872 17.4741 10.0868 17.4754 10.0865C17.4769 10.0861 17.4784 10.0857 17.4798 10.0853C17.4812 10.0849 17.4825 10.0846 17.4838 10.0842L17.4879 10.0831C17.4894 10.0827 17.4908 10.0822 17.4923 10.0818C17.4937 10.0815 17.4951 10.081 17.4964 10.0807C17.4975 10.0803 17.4987 10.08 17.4998 10.0796C17.5016 10.0791 17.5033 10.0786 17.505 10.0781C17.5059 10.0778 17.5069 10.0775 17.5078 10.0772C17.5096 10.0766 17.5113 10.0761 17.5131 10.0755C17.5141 10.0752 17.5152 10.0748 17.5162 10.0745C17.5179 10.0739 17.5197 10.0733 17.5214 10.0727C17.5222 10.0725 17.523 10.0722 17.5238 10.0719C17.5258 10.0713 17.5277 10.0706 17.5297 10.0699C17.5304 10.0697 17.5312 10.0694 17.5319 10.0692C17.5339 10.0685 17.5359 10.0678 17.5378 10.067C17.5385 10.0668 17.5391 10.0666 17.5397 10.0663C17.5419 10.0655 17.5441 10.0647 17.5462 10.0639L17.5473 10.0635C17.5497 10.0625 17.5521 10.0616 17.5545 10.0607C17.5546 10.0606 17.5547 10.0606 17.5549 10.0605C17.5575 10.0595 17.56 10.0585 17.5626 10.0574C17.5938 10.0447 17.6244 10.0295 17.6541 10.012C17.6545 10.0117 17.6549 10.0115 17.6554 10.0112C17.6574 10.01 17.6594 10.0088 17.6614 10.0076C17.6993 9.98461 17.7348 9.9581 17.7676 9.92853C17.7682 9.928 17.7687 9.92748 17.7693 9.92695C17.7699 9.92646 17.7704 9.92597 17.7709 9.92551C17.8414 9.86121 17.896 9.78555 17.9342 9.70364C17.9734 9.61972 17.9965 9.5268 17.9996 9.42879C17.9996 9.42752 17.9996 9.42629 17.9997 9.42502C17.9997 9.42422 17.9997 9.42341 17.9997 9.42263C17.9998 9.42024 17.9998 9.41782 17.9999 9.41543C17.9999 9.41536 17.9999 9.41532 17.9999 9.41525C17.9999 9.41156 17.9999 9.40783 17.9999 9.40411V3.07813C17.9999 1.52731 16.7382 0.265625 15.1874 0.265625H2.8125C1.26169 0.265625 0 1.52728 0 3.07813V12.9219C0 14.4727 1.26169 15.7344 2.8125 15.7344H9.47018C9.47183 15.7344 9.47348 15.7344 9.47514 15.7344C9.47735 15.7344 9.47953 15.7344 9.48175 15.7344H15.1875C16.7383 15.7344 18 14.4727 18 12.9219C18 12.5335 17.6852 12.2188 17.2969 12.2188ZM2.8125 14.3281C2.03709 14.3281 1.40625 13.6973 1.40625 12.9219V3.07813C1.40625 2.30272 2.03709 1.67188 2.8125 1.67188H15.1875C15.9629 1.67188 16.5938 2.30272 16.5938 3.07813V7.4729L13.8279 4.17331C13.6918 4.01096 13.4903 3.91875 13.2781 3.92195C13.0663 3.92525 12.8672 4.0239 12.7363 4.1904L7.31813 11.0819L5.47875 8.69571C5.34565 8.52299 5.13991 8.42184 4.92188 8.42184H4.92152C4.70334 8.42195 4.49757 8.52334 4.36454 8.69627L2.81714 10.7079C2.5804 11.0157 2.63795 11.4571 2.94574 11.6939C3.25361 11.9307 3.69503 11.8731 3.93177 11.5653L4.92244 10.2774L8.04488 14.3281H2.8125Z" fill="white"/>
</svg>
