<svg width="9" height="9" viewBox="0 0 9 9" fill="none" xmlns="http://www.w3.org/2000/svg">
<path d="M4.26549 0.830739L8.10127 0.832987C8.45342 0.833025 8.73906 1.1187 8.73915 1.47084L8.74131 5.30649L8.74131 5.30664L8.54348 5.30675C8.5438 5.54958 8.34692 5.74646 8.10391 5.74632L4.26549 0.830739ZM4.26549 0.830739C4.26547 0.830739 4.26545 0.830739 4.26543 0.830739H4.26549ZM1.9929 8.4814L7.46467 3.0096L4.26532 1.02856C4.14381 1.02846 4.03391 1.07766 3.95437 1.15719C3.87484 1.23672 3.82565 1.34663 3.82575 1.46814L3.62792 1.46819C3.62792 1.46823 3.62792 1.46827 3.62792 1.4683C3.62808 1.82035 3.91361 2.10593 4.26568 2.10602C4.26572 2.10602 4.26575 2.10602 4.26578 2.10602L6.56252 2.10742L1.09074 7.57923C0.84168 7.82829 0.842086 8.23211 1.09107 8.48109C1.34005 8.73008 1.74383 8.73047 1.9929 8.4814Z" fill="black" stroke="black" stroke-width="0.4"/>
</svg>
