<svg width="32" height="32" viewBox="0 0 32 32" fill="none" xmlns="http://www.w3.org/2000/svg">
<path d="M30.75 23.5C30.0596 23.5 29.5 24.0596 29.5 24.75C29.5 26.1285 28.3785 27.25 27 27.25H17.4584L14.5844 23.5215L23.6561 11.9829L29.7852 19.2948C29.7974 19.3096 29.8099 19.3241 29.8227 19.3382C29.8231 19.3387 29.8236 19.3392 29.824 19.3397C29.8255 19.3414 29.8271 19.3431 29.8286 19.3447C29.9424 19.4691 30.0762 19.5654 30.2209 19.6328C30.3695 19.7023 30.5341 19.7434 30.7076 19.7492C30.7108 19.7493 30.714 19.7494 30.7172 19.7495C30.7178 19.7495 30.7183 19.7495 30.7188 19.7496C30.8081 19.7518 30.8978 19.7446 30.9861 19.7277L30.9894 19.7271C30.9932 19.7263 30.9971 19.7256 31.0011 19.7248C31.0026 19.7244 31.0042 19.7241 31.0059 19.7237C31.0092 19.7231 31.0126 19.7224 31.016 19.7216C31.0179 19.7212 31.0198 19.7208 31.0216 19.7204C31.0247 19.7197 31.0278 19.719 31.0308 19.7183C31.033 19.7178 31.0352 19.7173 31.0373 19.7167C31.0401 19.7161 31.0428 19.7154 31.0456 19.7148C31.0479 19.7143 31.0503 19.7136 31.0526 19.7131C31.0552 19.7124 31.0578 19.7118 31.0604 19.7111C31.0627 19.7105 31.0651 19.7099 31.0674 19.7092C31.0701 19.7086 31.0726 19.7079 31.0753 19.7072C31.0776 19.7066 31.08 19.7059 31.0824 19.7052L31.0897 19.7033C31.0922 19.7025 31.0948 19.7017 31.0974 19.7011C31.0999 19.7004 31.1023 19.6996 31.1047 19.6989C31.1068 19.6984 31.1088 19.6978 31.1108 19.6971C31.1139 19.6962 31.117 19.6953 31.12 19.6943C31.1217 19.6938 31.1234 19.6933 31.125 19.6928C31.1281 19.6918 31.1312 19.6908 31.1343 19.6898C31.1362 19.6892 31.1381 19.6886 31.1399 19.6879C31.143 19.6869 31.1461 19.6859 31.1492 19.6849C31.1506 19.6844 31.1521 19.6839 31.1535 19.6834C31.1569 19.6822 31.1604 19.6811 31.1639 19.6799C31.1652 19.6794 31.1665 19.6789 31.1678 19.6785C31.1714 19.6772 31.1749 19.676 31.1784 19.6747C31.1795 19.6743 31.1806 19.6739 31.1817 19.6734C31.1856 19.672 31.1894 19.6706 31.1933 19.6691L31.1952 19.6684C31.1994 19.6667 31.2037 19.6651 31.2079 19.6634C31.2082 19.6634 31.2084 19.6632 31.2087 19.6631C31.2132 19.6613 31.2178 19.6595 31.2224 19.6576C31.2779 19.6349 31.3323 19.608 31.3851 19.5768C31.3858 19.5764 31.3866 19.5759 31.3873 19.5755C31.3909 19.5734 31.3944 19.5712 31.398 19.5691C31.4654 19.5282 31.5286 19.4811 31.5868 19.4285C31.5879 19.4276 31.5889 19.4266 31.5899 19.4257C31.5909 19.4248 31.5918 19.4239 31.5928 19.4231C31.7181 19.3088 31.8151 19.1743 31.8829 19.0287C31.9526 18.8795 31.9937 18.7143 31.9993 18.5401C31.9993 18.5378 31.9994 18.5356 31.9994 18.5334C31.9994 18.5319 31.9995 18.5305 31.9995 18.5291C31.9996 18.5249 31.9997 18.5206 31.9998 18.5163C31.9998 18.5162 31.9998 18.5161 31.9998 18.516C31.9998 18.5094 31.9998 18.5028 31.9998 18.4962V7.25C31.9998 4.493 29.7568 2.25 26.9998 2.25H5C2.243 2.25 0 4.49294 0 7.25V24.75C0 27.507 2.243 29.75 5 29.75H16.8359C16.8388 29.75 16.8418 29.7501 16.8447 29.7501C16.8486 29.7501 16.8525 29.7501 16.8564 29.75H27C29.757 29.75 32 27.507 32 24.75C32 24.0596 31.4404 23.5 30.75 23.5ZM5 27.25C3.6215 27.25 2.5 26.1285 2.5 24.75V7.25C2.5 5.8715 3.6215 4.75 5 4.75H27C28.3785 4.75 29.5 5.8715 29.5 7.25V15.0629L24.5829 9.197C24.3411 8.90837 23.9827 8.74444 23.6054 8.75012C23.2289 8.756 22.8751 8.93138 22.6424 9.22738L13.01 21.479L9.74 17.2368C9.50338 16.9298 9.13762 16.7499 8.75 16.7499H8.74938C8.3615 16.7501 7.99569 16.9304 7.75919 17.2378L5.00825 20.814C4.58738 21.3612 4.68969 22.146 5.23688 22.5669C5.78419 22.9879 6.56894 22.8855 6.98981 22.3383L8.751 20.0487L14.302 27.25H5Z" fill="white"/>
<path d="M8.75 6.75C6.68225 6.75 5 8.43225 5 10.5C5 12.5677 6.68225 14.25 8.75 14.25C10.8177 14.25 12.5 12.5677 12.5 10.5C12.5 8.43225 10.8177 6.75 8.75 6.75ZM8.75 11.75C8.06075 11.75 7.5 11.1892 7.5 10.5C7.5 9.81075 8.06075 9.25 8.75 9.25C9.43925 9.25 10 9.81075 10 10.5C10 11.1892 9.43925 11.75 8.75 11.75Z" fill="white"/>
</svg>
