<svg width="95" height="14" viewBox="0 0 95 14" fill="none" xmlns="http://www.w3.org/2000/svg">
<path d="M13.536 6.232V7.204C13.536 9.004 12.96 10.462 11.808 11.578C10.656 12.694 9.168 13.252 7.344 13.252C5.4 13.252 3.786 12.622 2.502 11.362C1.23 10.09 0.594 8.542 0.594 6.718C0.594 4.882 1.224 3.328 2.484 2.056C3.756 0.783999 5.328 0.147999 7.2 0.147999C8.376 0.147999 9.45 0.417999 10.422 0.957999C11.394 1.486 12.15 2.194 12.69 3.082L10.566 4.306C10.266 3.79 9.81 3.37 9.198 3.046C8.598 2.722 7.926 2.56 7.182 2.56C5.982 2.56 4.992 2.956 4.212 3.748C3.444 4.528 3.06 5.518 3.06 6.718C3.06 7.906 3.45 8.89 4.23 9.67C5.022 10.438 6.066 10.822 7.362 10.822C8.322 10.822 9.114 10.612 9.738 10.192C10.374 9.76 10.806 9.172 11.034 8.428H7.218V6.232H13.536ZM17.1568 9.454C17.4688 10.582 18.3148 11.146 19.6948 11.146C20.5828 11.146 21.2548 10.846 21.7108 10.246L23.5828 11.326C22.6948 12.61 21.3868 13.252 19.6588 13.252C18.1708 13.252 16.9768 12.802 16.0768 11.902C15.1768 11.002 14.7268 9.868 14.7268 8.5C14.7268 7.144 15.1708 6.016 16.0588 5.116C16.9468 4.204 18.0868 3.748 19.4788 3.748C20.7988 3.748 21.8848 4.204 22.7368 5.116C23.6008 6.028 24.0328 7.156 24.0328 8.5C24.0328 8.8 24.0028 9.118 23.9428 9.454H17.1568ZM17.1208 7.654H21.7108C21.5788 7.042 21.3028 6.586 20.8828 6.286C20.4748 5.986 20.0068 5.836 19.4788 5.836C18.8548 5.836 18.3388 5.998 17.9308 6.322C17.5228 6.634 17.2528 7.078 17.1208 7.654ZM30.5381 6.232H28.5041V9.976C28.5041 10.288 28.5821 10.516 28.7381 10.66C28.8941 10.804 29.1221 10.888 29.4221 10.912C29.7221 10.924 30.0941 10.918 30.5381 10.894V13C28.9421 13.18 27.8141 13.03 27.1541 12.55C26.5061 12.07 26.1821 11.212 26.1821 9.976V6.232H24.6161V4H26.1821V2.182L28.5041 1.48V4H30.5381V6.232ZM39.5879 0.399999H42.0539V13H39.5879V7.78H34.9079V13H32.4239V0.399999H34.9079V5.404H39.5879V0.399999ZM45.4386 2.92C45.0546 2.92 44.7186 2.782 44.4306 2.506C44.1546 2.218 44.0166 1.882 44.0166 1.498C44.0166 1.114 44.1546 0.778 44.4306 0.489999C44.7186 0.201999 45.0546 0.0579993 45.4386 0.0579993C45.8346 0.0579993 46.1706 0.201999 46.4466 0.489999C46.7346 0.778 46.8786 1.114 46.8786 1.498C46.8786 1.882 46.7346 2.218 46.4466 2.506C46.1706 2.782 45.8346 2.92 45.4386 2.92ZM44.2866 13V4H46.6086V13H44.2866ZM51.0559 5.548C51.2719 4.972 51.6259 4.54 52.1179 4.252C52.6219 3.964 53.1799 3.82 53.7919 3.82V6.412C53.0839 6.328 52.4479 6.472 51.8839 6.844C51.3319 7.216 51.0559 7.834 51.0559 8.698V13H48.7339V4H51.0559V5.548ZM56.7779 9.454C57.0899 10.582 57.9359 11.146 59.3159 11.146C60.2039 11.146 60.8759 10.846 61.3319 10.246L63.2039 11.326C62.3159 12.61 61.0079 13.252 59.2799 13.252C57.7919 13.252 56.5979 12.802 55.6979 11.902C54.7979 11.002 54.3479 9.868 54.3479 8.5C54.3479 7.144 54.7919 6.016 55.6799 5.116C56.5679 4.204 57.7079 3.748 59.0999 3.748C60.4199 3.748 61.5059 4.204 62.3579 5.116C63.2219 6.028 63.6539 7.156 63.6539 8.5C63.6539 8.8 63.6239 9.118 63.5639 9.454H56.7779ZM56.7419 7.654H61.3319C61.1999 7.042 60.9239 6.586 60.5039 6.286C60.0959 5.986 59.6279 5.836 59.0999 5.836C58.4759 5.836 57.9599 5.998 57.5519 6.322C57.1439 6.634 56.8739 7.078 56.7419 7.654ZM72.0266 0.399999H74.3486V13H72.0266V11.938C71.3426 12.814 70.3706 13.252 69.1106 13.252C67.8986 13.252 66.8606 12.796 65.9966 11.884C65.1446 10.96 64.7186 9.832 64.7186 8.5C64.7186 7.168 65.1446 6.046 65.9966 5.134C66.8606 4.21 67.8986 3.748 69.1106 3.748C70.3706 3.748 71.3426 4.186 72.0266 5.062V0.399999ZM67.7426 10.336C68.2226 10.804 68.8226 11.038 69.5426 11.038C70.2626 11.038 70.8566 10.804 71.3246 10.336C71.7926 9.856 72.0266 9.244 72.0266 8.5C72.0266 7.756 71.7926 7.15 71.3246 6.682C70.8566 6.202 70.2626 5.962 69.5426 5.962C68.8226 5.962 68.2226 6.202 67.7426 6.682C67.2746 7.15 67.0406 7.756 67.0406 8.5C67.0406 9.244 67.2746 9.856 67.7426 10.336ZM78.9022 12.784C78.6022 13.084 78.2422 13.234 77.8222 13.234C77.4022 13.234 77.0422 13.084 76.7422 12.784C76.4422 12.484 76.2922 12.124 76.2922 11.704C76.2922 11.284 76.4422 10.924 76.7422 10.624C77.0422 10.324 77.4022 10.174 77.8222 10.174C78.2422 10.174 78.6022 10.324 78.9022 10.624C79.2022 10.924 79.3522 11.284 79.3522 11.704C79.3522 12.124 79.2022 12.484 78.9022 12.784ZM87.4079 4H89.7299V13H87.4079V11.938C86.7119 12.814 85.7339 13.252 84.4739 13.252C83.2739 13.252 82.2419 12.796 81.3779 11.884C80.5259 10.96 80.0999 9.832 80.0999 8.5C80.0999 7.168 80.5259 6.046 81.3779 5.134C82.2419 4.21 83.2739 3.748 84.4739 3.748C85.7339 3.748 86.7119 4.186 87.4079 5.062V4ZM83.1239 10.336C83.5919 10.804 84.1859 11.038 84.9059 11.038C85.6259 11.038 86.2199 10.804 86.6879 10.336C87.1679 9.856 87.4079 9.244 87.4079 8.5C87.4079 7.756 87.1679 7.15 86.6879 6.682C86.2199 6.202 85.6259 5.962 84.9059 5.962C84.1859 5.962 83.5919 6.202 83.1239 6.682C82.6559 7.15 82.4219 7.756 82.4219 8.5C82.4219 9.244 82.6559 9.856 83.1239 10.336ZM92.9874 2.92C92.6034 2.92 92.2674 2.782 91.9794 2.506C91.7034 2.218 91.5654 1.882 91.5654 1.498C91.5654 1.114 91.7034 0.778 91.9794 0.489999C92.2674 0.201999 92.6034 0.0579993 92.9874 0.0579993C93.3834 0.0579993 93.7194 0.201999 93.9954 0.489999C94.2834 0.778 94.4274 1.114 94.4274 1.498C94.4274 1.882 94.2834 2.218 93.9954 2.506C93.7194 2.782 93.3834 2.92 92.9874 2.92ZM91.8354 13V4H94.1574V13H91.8354Z" fill="black"/>
</svg>
