<svg width="18" height="15" viewBox="0 0 18 15" fill="none" xmlns="http://www.w3.org/2000/svg">
<path d="M6.69649 14.2713C5.97125 14.2713 5.27252 13.9879 4.75067 13.4749L0.210295 9.01325C-0.0666981 8.74106 -0.0705433 8.29584 0.201643 8.01899C0.473829 7.74199 0.91905 7.73801 1.19604 8.0102L5.73628 12.4719C6.02124 12.7519 6.4129 12.8935 6.81102 12.8604C7.20914 12.8272 7.5721 12.6228 7.80679 12.2995L16.728 0.0126993C16.9561 -0.30151 17.3958 -0.371273 17.71 -0.143169C18.0242 0.0850718 18.094 0.5248 17.8659 0.839009L8.9447 13.1257C8.46927 13.7805 7.73414 14.1945 6.92775 14.2617C6.85057 14.2681 6.77325 14.2713 6.69649 14.2713Z" fill="white"/>
</svg>
