<svg width="24" height="18" viewBox="0 0 24 18" fill="none" xmlns="http://www.w3.org/2000/svg">
<path d="M15.2996 17.9514C14.9945 17.9514 14.6862 17.892 14.3914 17.7699C13.5086 17.4046 12.9382 16.5544 12.9382 15.6041V13.587C12.9382 13.0692 13.3579 12.6493 13.8757 12.6493C14.3936 12.6493 14.8134 13.0692 14.8134 13.587V15.6041C14.8134 15.885 15.0198 16.0005 15.1084 16.0373C15.1987 16.0747 15.4305 16.1397 15.6326 15.9374L21.8513 9.71105C22.2177 9.34429 22.2177 8.74755 21.8513 8.38079L15.6326 2.15465C15.4305 1.95231 15.1987 2.01713 15.1086 2.05449C15.0198 2.09129 14.8134 2.20701 14.8134 2.4879V8.1552C14.8134 9.1892 13.9722 10.0304 12.9382 10.0304H0.937501C0.419678 10.0304 0 9.61071 0 9.09288C0 8.57506 0.419678 8.1552 0.937501 8.1552H12.9382V2.4879C12.9382 1.53758 13.5086 0.687237 14.3914 0.321941C15.2772 -0.0446367 16.2852 0.154582 16.9592 0.82951L23.1779 7.05565C24.2739 8.15319 24.2739 9.93883 23.1779 11.0364L16.9592 17.2625C16.5095 17.7128 15.9111 17.9512 15.2996 17.9514Z" fill="white"/>
</svg>
