<svg width="64" height="64" viewBox="0 0 64 64" fill="none" xmlns="http://www.w3.org/2000/svg">
<path d="M57.5 45.25C58.8807 45.25 60 44.1307 60 42.75V33.5C60 27.986 55.514 23.5 50 23.5H21.9954V14.6833C21.9954 9.34388 26.4814 5 31.9954 5C37.5094 5 41.9954 9.37387 41.9954 14.75C41.9954 16.1308 43.1146 17.25 44.4954 17.25C45.8761 17.25 46.9954 16.1308 46.9954 14.75C46.9954 6.61687 40.2664 0 31.9954 0C23.7244 0 16.9954 6.58687 16.9954 14.6833V23.5H14C8.486 23.5 4 27.986 4 33.5V54C4 59.514 8.486 64 14 64H50C55.514 64 60 59.514 60 54C60 52.6193 58.8807 51.5 57.5 51.5C56.1193 51.5 55 52.6193 55 54C55 56.757 52.757 59 50 59H14C11.243 59 9 56.757 9 54V33.5C9 30.743 11.243 28.5 14 28.5H50C52.757 28.5 55 30.743 55 33.5V42.75C55 44.1307 56.1193 45.25 57.5 45.25Z" fill="black"/>
<path d="M32 45.875C33.3807 45.875 34.5 44.7557 34.5 43.375C34.5 41.9943 33.3807 40.875 32 40.875C30.6193 40.875 29.5 41.9943 29.5 43.375C29.5 44.7557 30.6193 45.875 32 45.875Z" fill="black"/>
</svg>
