<svg width="64" height="64" viewBox="0 0 64 64" fill="none" xmlns="http://www.w3.org/2000/svg">
<path d="M46.25 45.75C47.6307 45.75 48.75 44.6307 48.75 43.25C48.75 41.8693 47.6307 40.75 46.25 40.75C44.8693 40.75 43.75 41.8693 43.75 43.25C43.75 44.6307 44.8693 45.75 46.25 45.75Z" fill="black"/>
<path d="M57.5 45.25C58.8807 45.25 60 44.1307 60 42.75V33.5C60 27.986 55.514 23.5 50 23.5H46.9954V14.6833C46.9954 6.58687 40.2664 0 31.9954 0C23.7244 0 16.9954 6.58687 16.9954 14.6833V23.5H14C8.486 23.5 4 27.986 4 33.5V54C4 59.514 8.486 64 14 64H50C55.514 64 60 59.514 60 54C60 52.6193 58.8807 51.5 57.5 51.5C56.1193 51.5 55 52.6193 55 54C55 56.757 52.757 59 50 59H14C11.243 59 9 56.757 9 54V33.5C9 30.743 11.243 28.5 14 28.5H50C52.757 28.5 55 30.743 55 33.5V42.75C55 44.1307 56.1193 45.25 57.5 45.25ZM41.9954 23.5H21.9954V14.6833C21.9954 9.34388 26.4814 5 31.9954 5C37.5094 5 41.9954 9.34388 41.9954 14.6833V23.5Z" fill="black"/>
<path d="M27.375 45.75C28.7557 45.75 29.875 44.6307 29.875 43.25C29.875 41.8693 28.7557 40.75 27.375 40.75C25.9943 40.75 24.875 41.8693 24.875 43.25C24.875 44.6307 25.9943 45.75 27.375 45.75Z" fill="black"/>
<path d="M18 45.75C19.3807 45.75 20.5 44.6307 20.5 43.25C20.5 41.8693 19.3807 40.75 18 40.75C16.6193 40.75 15.5 41.8693 15.5 43.25C15.5 44.6307 16.6193 45.75 18 45.75Z" fill="black"/>
<path d="M36.75 45.75C38.1307 45.75 39.25 44.6307 39.25 43.25C39.25 41.8693 38.1307 40.75 36.75 40.75C35.3693 40.75 34.25 41.8693 34.25 43.25C34.25 44.6307 35.3693 45.75 36.75 45.75Z" fill="black"/>
</svg>
