<svg width="19" height="19" viewBox="0 0 19 19" fill="none" xmlns="http://www.w3.org/2000/svg">
<path d="M18.2578 13.9531C17.8479 13.9531 17.5156 14.2854 17.5156 14.6953C17.5156 15.5138 16.8497 16.1797 16.0312 16.1797H10.3659L8.65947 13.9659L14.0458 7.11483L17.685 11.4563C17.6922 11.4651 17.6996 11.4737 17.7072 11.482C17.7075 11.4823 17.7077 11.4826 17.708 11.4829C17.7089 11.4839 17.7098 11.4849 17.7107 11.4859C17.7783 11.5598 17.8577 11.6169 17.9436 11.657C18.0319 11.6982 18.1296 11.7227 18.2327 11.7261C18.2345 11.7262 18.2364 11.7262 18.2383 11.7263C18.2387 11.7263 18.239 11.7263 18.2393 11.7263C18.2923 11.7276 18.3455 11.7233 18.398 11.7133L18.3999 11.7129C18.4022 11.7125 18.4045 11.7121 18.4069 11.7116C18.4078 11.7114 18.4088 11.7112 18.4097 11.711C18.4117 11.7106 18.4137 11.7102 18.4158 11.7097C18.4169 11.7095 18.418 11.7092 18.4191 11.709C18.4209 11.7086 18.4227 11.7082 18.4245 11.7077C18.4258 11.7075 18.4271 11.7072 18.4284 11.7068C18.43 11.7064 18.4317 11.706 18.4333 11.7057C18.4347 11.7053 18.4361 11.705 18.4375 11.7046C18.439 11.7043 18.4406 11.7039 18.4421 11.7035C18.4435 11.7031 18.4449 11.7027 18.4463 11.7024C18.4478 11.702 18.4494 11.7016 18.4509 11.7011C18.4523 11.7008 18.4538 11.7004 18.4552 11.7L18.4595 11.6988C18.461 11.6984 18.4625 11.6979 18.4641 11.6975C18.4656 11.6971 18.467 11.6967 18.4684 11.6962C18.4696 11.6959 18.4708 11.6955 18.472 11.6952C18.4739 11.6946 18.4757 11.6941 18.4775 11.6935C18.4785 11.6932 18.4795 11.6929 18.4805 11.6926C18.4823 11.692 18.4841 11.6914 18.486 11.6908C18.4871 11.6905 18.4882 11.6901 18.4893 11.6897C18.4912 11.6891 18.493 11.6885 18.4948 11.6879C18.4957 11.6876 18.4965 11.6873 18.4974 11.687C18.4994 11.6863 18.5015 11.6856 18.5036 11.6849C18.5043 11.6847 18.5051 11.6844 18.5059 11.6841C18.508 11.6834 18.5101 11.6826 18.5122 11.6818C18.5128 11.6816 18.5135 11.6814 18.5142 11.6811C18.5165 11.6803 18.5187 11.6794 18.521 11.6785L18.5221 11.6781C18.5247 11.6771 18.5272 11.6762 18.5297 11.6752C18.5299 11.6751 18.53 11.6751 18.5302 11.675C18.5329 11.6739 18.5356 11.6728 18.5383 11.6717C18.5713 11.6582 18.6036 11.6423 18.6349 11.6237C18.6353 11.6235 18.6358 11.6232 18.6362 11.623C18.6383 11.6217 18.6404 11.6204 18.6426 11.6192C18.6826 11.5949 18.7201 11.5669 18.7547 11.5357C18.7553 11.5351 18.7559 11.5346 18.7565 11.534C18.7571 11.5335 18.7576 11.533 18.7582 11.5325C18.8326 11.4646 18.8902 11.3847 18.9305 11.2983C18.9719 11.2097 18.9963 11.1116 18.9996 11.0082C18.9996 11.0068 18.9996 11.0055 18.9997 11.0042C18.9997 11.0033 18.9997 11.0025 18.9997 11.0017C18.9997 10.9991 18.9998 10.9966 18.9999 10.9941C18.9999 10.994 18.9999 10.9939 18.9999 10.9939C18.9999 10.99 18.9999 10.986 18.9999 10.9821V4.30469C18.9999 2.66772 17.6681 1.33594 16.0311 1.33594H2.96875C1.33178 1.33594 0 2.66768 0 4.30469V14.6953C0 16.3323 1.33178 17.6641 2.96875 17.6641H9.9963C9.99804 17.6641 9.99979 17.6641 10.0015 17.6641C10.0039 17.6641 10.0062 17.6641 10.0085 17.6641H16.0312C17.6682 17.6641 19 16.3323 19 14.6953C19 14.2854 18.6677 13.9531 18.2578 13.9531ZM2.96875 16.1797C2.15027 16.1797 1.48438 15.5138 1.48438 14.6953V4.30469C1.48438 3.4862 2.15027 2.82031 2.96875 2.82031H16.0312C16.8497 2.82031 17.5156 3.4862 17.5156 4.30469V8.94362L14.5961 5.46072C14.4525 5.28935 14.2398 5.19201 14.0157 5.19539C13.7922 5.19887 13.5821 5.303 13.4439 5.47875L7.72469 12.7532L5.78312 10.2344C5.64263 10.052 5.42546 9.94528 5.19531 9.94528H5.19494C4.96464 9.94539 4.74744 10.0524 4.60702 10.235L2.97365 12.3583C2.72375 12.6832 2.7845 13.1492 3.10939 13.3991C3.43436 13.6491 3.90031 13.5883 4.1502 13.2634L5.19591 11.9039L8.49181 16.1797H2.96875Z" fill="white"/>
<path d="M5.19531 4.00781C3.96759 4.00781 2.96875 5.00665 2.96875 6.23438C2.96875 7.4621 3.96759 8.46094 5.19531 8.46094C6.42304 8.46094 7.42188 7.4621 7.42188 6.23438C7.42188 5.00665 6.42304 4.00781 5.19531 4.00781ZM5.19531 6.97656C4.78607 6.97656 4.45312 6.64362 4.45312 6.23438C4.45312 5.82513 4.78607 5.49219 5.19531 5.49219C5.60455 5.49219 5.9375 5.82513 5.9375 6.23438C5.9375 6.64362 5.60455 6.97656 5.19531 6.97656Z" fill="white"/>
</svg>
