<svg width="19" height="10" viewBox="0 0 19 10" fill="none" xmlns="http://www.w3.org/2000/svg">
<path d="M9.13348 2.79853L9.13327 2.79873L2.46481 8.97754C2.07207 9.34144 1.44312 9.34074 1.05128 8.9759C1.05128 8.9759 1.05127 8.97589 1.05127 8.97589L1.22163 8.79292C1.07388 8.65536 1 8.47519 1 8.29509C1 8.11436 1.0743 7.93373 1.22292 7.79599L9.13348 2.79853ZM9.13348 2.79853C9.33331 2.61294 9.66638 2.6127 9.86712 2.79916L9.86734 2.79937L16.5352 8.97754L16.5352 8.97755C16.928 9.3414 17.5569 9.34075 17.9488 8.97589L17.9488 8.97587C18.3511 8.60117 18.3503 7.98631 17.947 7.61261L17.947 7.61261L11.2801 1.43532C10.2965 0.521778 8.70384 0.521624 7.72082 1.43447L9.13348 2.79853Z" fill="black" stroke="black" stroke-width="0.5"/>
</svg>
