<svg width="24" height="24" viewBox="0 0 24 24" fill="none" xmlns="http://www.w3.org/2000/svg">
<path d="M20.25 0.84375H3.75C1.68219 0.84375 0 2.52594 0 4.59375V17.7188C0 19.7866 1.68219 21.4688 3.75 21.4688H16.5469C17.0647 21.4688 17.4844 21.0491 17.4844 20.5312C17.4844 20.0134 17.0647 19.5938 16.5469 19.5938H13.0939L10.9384 16.7974L17.7691 8.10919L22.3674 13.1915C22.6274 13.4791 23.0378 13.5767 23.3996 13.4374C23.7612 13.2979 24 12.9501 24 12.5625V4.59375C24 2.52594 22.3178 0.84375 20.25 0.84375V0.84375ZM22.125 10.129L18.414 6.02728C18.2287 5.82239 17.9621 5.70923 17.6863 5.7193C17.4104 5.729 17.1526 5.85974 16.9818 6.0769L9.75751 15.2655L7.30499 12.0839C7.12756 11.8537 6.85327 11.7188 6.5625 11.7188C6.56232 11.7188 6.56213 11.7188 6.56195 11.7188C6.27118 11.7189 5.9967 11.8541 5.81946 12.0846L3.75623 14.7667C3.44055 15.1772 3.51727 15.7657 3.92761 16.0814C4.33813 16.3973 4.92664 16.3204 5.24249 15.91L6.56323 14.1929L10.7265 19.5938H3.75C2.71619 19.5938 1.875 18.7526 1.875 17.7188V4.59375C1.875 3.55994 2.71619 2.71875 3.75 2.71875H20.25C21.2838 2.71875 22.125 3.55994 22.125 4.59375V10.129Z" fill="black"/>
<path d="M6.5625 4.21875C5.0116 4.21875 3.75 5.48035 3.75 7.03125C3.75 8.58215 5.0116 9.84375 6.5625 9.84375C8.1134 9.84375 9.375 8.58215 9.375 7.03125C9.375 5.48035 8.1134 4.21875 6.5625 4.21875ZM6.5625 7.96875C6.04559 7.96875 5.625 7.54816 5.625 7.03125C5.625 6.51434 6.04559 6.09375 6.5625 6.09375C7.07941 6.09375 7.5 6.51434 7.5 7.03125C7.5 7.54816 7.07941 7.96875 6.5625 7.96875Z" fill="black"/>
<path d="M21.9599 15.0441C21.9571 15.0414 21.9544 15.0385 21.9516 15.0357C21.5085 14.5895 20.9191 14.3438 20.2918 14.3438C19.6663 14.3438 19.0785 14.588 18.636 15.0317L16.826 16.817C16.4574 17.1804 16.4534 17.774 16.817 18.1426C17.1805 18.5112 17.7741 18.5154 18.1427 18.1518L19.3543 16.9568V22.2188C19.3543 22.7366 19.774 23.1562 20.2918 23.1562C20.8096 23.1562 21.2293 22.7366 21.2293 22.2188V16.9854L22.3889 18.1833C22.5727 18.3734 22.8175 18.4688 23.0625 18.4688C23.2975 18.4688 23.5326 18.381 23.7146 18.2049C24.0867 17.8447 24.0962 17.2513 23.736 16.8792L21.9599 15.0441Z" fill="black"/>
</svg>
